<svg width="543" height="346" viewBox="0 0 543 346" fill="none" xmlns="http://www.w3.org/2000/svg">
<mask id="mask0" mask-type="alpha" maskUnits="userSpaceOnUse" x="0" y="0" width="543" height="346">
<path d="M530.589 0H12.4114C5.55679 0 0 3.58172 0 8V338C0 342.418 5.55679 346 12.4114 346H530.589C537.443 346 543 342.418 543 338V8C543 3.58172 537.443 0 530.589 0Z" fill="white"/>
</mask>
<g mask="url(#mask0)">
<path d="M530.589 0H12.4114C5.55679 0 0 3.58172 0 8V338C0 342.418 5.55679 346 12.4114 346H530.589C537.443 346 543 342.418 543 338V8C543 3.58172 537.443 0 530.589 0Z" fill="#E8EAF6"/>
<path d="M397.166 85H54.3C47.4453 85 41.8885 88.5817 41.8885 93V111C41.8885 115.418 47.4453 119 54.3 119H397.166C404.02 119 409.577 115.418 409.577 111V93C409.577 88.5817 404.02 85 397.166 85Z" fill="white"/>
<path d="M397.166 133H54.3C47.4453 133 41.8885 136.582 41.8885 141V159C41.8885 163.418 47.4453 167 54.3 167H397.166C404.02 167 409.577 163.418 409.577 159V141C409.577 136.582 404.02 133 397.166 133Z" fill="white"/>
<path d="M397.166 181H54.3C47.4453 181 41.8885 184.582 41.8885 189V207C41.8885 211.418 47.4453 215 54.3 215H397.166C404.02 215 409.577 211.418 409.577 207V189C409.577 184.582 404.02 181 397.166 181Z" fill="white"/>
<path d="M397.166 229H54.3C47.4453 229 41.8885 232.582 41.8885 237V255C41.8885 259.418 47.4453 263 54.3 263H397.166C404.02 263 409.577 259.418 409.577 255V237C409.577 232.582 404.02 229 397.166 229Z" fill="white"/>
<path d="M397.166 277H54.3C47.4453 277 41.8885 280.582 41.8885 285V303C41.8885 307.418 47.4453 311 54.3 311H397.166C404.02 311 409.577 307.418 409.577 303V285C409.577 280.582 404.02 277 397.166 277Z" fill="white"/>
<path fill-rule="evenodd" clip-rule="evenodd" d="M-3.53003 0.197021H543.47V54.0572H-3.53003V0.197021Z" fill="#242A45"/>
<path opacity="0.245" d="M38.47 42.1897C47.3065 42.1897 54.47 35.6503 54.47 27.5836C54.47 19.5168 47.3065 12.9774 38.47 12.9774C29.6334 12.9774 22.47 19.5168 22.47 27.5836C22.47 35.6503 29.6334 42.1897 38.47 42.1897Z" fill="white"/>
<path opacity="0.75" d="M186.47 18.4547H72.47C70.8131 18.4547 69.47 19.6808 69.47 21.1934C69.47 22.7059 70.8131 23.932 72.47 23.932H186.47C188.127 23.932 189.47 22.7059 189.47 21.1934C189.47 19.6808 188.127 18.4547 186.47 18.4547Z" fill="white"/>
<path opacity="0.25" d="M130.47 31.2351H72.47C70.8131 31.2351 69.47 32.4612 69.47 33.9738C69.47 35.4863 70.8131 36.7124 72.47 36.7124H130.47C132.127 36.7124 133.47 35.4863 133.47 33.9738C133.47 32.4612 132.127 31.2351 130.47 31.2351Z" fill="white"/>
<mask id="mask1" mask-type="alpha" maskUnits="userSpaceOnUse" x="200" y="85" width="350" height="271">
<path d="M550 85.8303H200.219V356H550V85.8303Z" fill="white"/>
</mask>
<g mask="url(#mask1)">
<path fill-rule="evenodd" clip-rule="evenodd" d="M201.293 314.318C201.963 316.16 203.008 317.967 204.467 319.736C229.669 350.294 323.843 360.48 416.691 354.255C465.167 351.004 499.361 331.866 520.972 314.317C525.658 310.514 530.117 306.485 534.332 302.247C539.001 297.55 542.645 292.333 545.242 286.824C552.889 270.594 551.416 251.845 540.119 236.468C530.542 223.436 517.397 213.807 510.606 203.108C497.674 182.735 566.043 131.232 521.552 98.6928C505.848 87.2051 472.392 84.5541 435.89 86.336C391.462 88.5069 342.525 97.2496 315.606 104.635C259.894 119.914 225.026 142.045 217.067 166.945C209.109 191.844 230.378 203.111 248.947 226.879C266.442 249.268 190.394 284.388 201.293 314.318" fill="#3A499E"/>
<path fill-rule="evenodd" clip-rule="evenodd" d="M295.451 168.742L312.436 166.12L315 180.543L294 186.204L295.451 168.742Z" fill="#306299"/>
<path fill-rule="evenodd" clip-rule="evenodd" d="M313 167.141C313 167.141 326.176 166.823 340 161.556L333.504 172.742L314.751 177.988L313 167.141Z" fill="#FA9E89"/>
<mask id="mask2" mask-type="alpha" maskUnits="userSpaceOnUse" x="390" y="87" width="158" height="202">
<path d="M548 87.656H390.175V288.348H548V87.656Z" fill="white"/>
</mask>
<g mask="url(#mask2)">
<path opacity="0.152" fill-rule="evenodd" clip-rule="evenodd" d="M390.934 135.252C399.046 171.912 536.94 228.083 543.57 288.348C550.688 272.143 549.317 253.423 538.8 238.068C529.886 225.055 517.65 215.441 511.329 204.758C499.29 184.417 562.934 132.989 521.519 100.499C506.9 89.029 475.758 86.3817 441.779 88.1618C431.435 90.3199 383.615 102.157 390.934 135.252Z" fill="white"/>
</g>
<path opacity="0.149" fill-rule="evenodd" clip-rule="evenodd" d="M198.18 307.617C197.195 314.798 200.52 319.791 201.82 321.518C224.249 351.343 346.314 361.286 428.95 355.21C472.096 352.037 507.455 331.736 529 309.365L198.18 307.617Z" fill="black"/>
<path opacity="0.128" fill-rule="evenodd" clip-rule="evenodd" d="M476.373 311.097C476.373 311.097 486.45 311.654 486.295 314.438C486.14 317.223 479.784 323.346 479.784 323.346L489.293 320.238L518 319.24L514.9 321.677C514.9 321.677 491.773 322.651 490.74 323.393C489.706 324.135 476.476 333.23 474.203 333.601C471.929 333.972 327.515 333.806 327.515 333.806C327.515 333.806 312.657 334.344 310.176 330.167C307.696 325.992 298.704 326.269 296.223 329.889C293.743 333.508 294.087 346.871 294.087 346.871C294.087 346.871 287.294 345.253 286.921 345.108C263.356 336.013 237 307.617 237 307.617L476.373 311.097V311.097Z" fill="black"/>
<path fill-rule="evenodd" clip-rule="evenodd" d="M507 275.388L492.55 320.268C492.55 320.268 490.494 322.499 489 320.432L498.714 274.753L507 275.388ZM526.866 273.841L534 304.092L530.603 307.617L521 274.711L526.866 273.841Z" fill="#162F44"/>
<path fill-rule="evenodd" clip-rule="evenodd" d="M314.507 283.957L308.482 315.178L307.483 320.353L309.675 320.647L309.831 320.669L314.619 321.31C314.619 321.31 330.59 285.394 331.949 276.774C333.31 268.153 306.804 233.674 306.804 233.674L278.036 235.908C277.275 243.411 288.78 257.554 299.063 268.562C307.164 277.234 314.507 283.957 314.507 283.957" fill="#F4F2F9"/>
<path fill-rule="evenodd" clip-rule="evenodd" d="M314.12 282.545L307.243 318.848L309.389 319.141L309.462 319.485L309.542 319.163C310.417 315.667 320.682 284.714 320.994 278.405C321.327 271.717 306.967 251.018 306.967 251.018L299 267.189C306.93 275.838 314.12 282.544 314.12 282.544" fill="#E0DFEA"/>
<path fill-rule="evenodd" clip-rule="evenodd" d="M276 237.325L304.667 235.146L306 191.577C306 191.577 299 168.859 291.333 168.859C286.78 168.859 282.347 170.506 279.633 174.514C277.78 177.256 276.73 181.105 277 186.287C277.61 197.951 276.27 230.933 276.033 236.515C276.013 237.042 276 237.325 276 237.325" fill="#6397D9"/>
<path fill-rule="evenodd" clip-rule="evenodd" d="M283.885 233.926L283.347 182.057L290 169.715L282.237 168.859L279.508 171.789C277.718 174.531 276.705 178.38 276.966 183.56C277.555 195.221 276.229 229.005 276 234.587L283.885 233.926V233.926Z" fill="#8BBFF7"/>
<path fill-rule="evenodd" clip-rule="evenodd" d="M284 183.465L305.017 219.98L305.563 203.557L306 190.23L288.476 183.465H284Z" fill="#306299"/>
<path fill-rule="evenodd" clip-rule="evenodd" d="M337.671 332.265H466.33C471.119 332.265 475.001 328.697 475.001 324.296V122.968C475.001 118.566 471.119 114.999 466.33 114.999H337.67C332.881 114.999 328.999 118.566 328.999 122.968V324.296C328.999 328.697 332.881 332.265 337.67 332.265" fill="white"/>
<path fill-rule="evenodd" clip-rule="evenodd" d="M337 143.563V224.28C337 225.94 338.456 227.284 340.253 227.284H463.747C465.544 227.284 467 225.94 467 224.28V143.563C467 141.903 465.544 140.56 463.747 140.56H340.253C338.456 140.56 337 141.903 337 143.563Z" fill="#E4DCF1"/>
<path fill-rule="evenodd" clip-rule="evenodd" d="M401.147 162.469L402.699 163.549L406 176.668L405.929 178.829L400.702 178.901C400.347 178.905 399.989 178.841 399.672 178.672C398.177 177.871 397.539 175.637 398.364 173.658C398.808 172.594 399.945 170.709 400.077 169.877C400.391 167.883 401.147 162.469 401.147 162.469" fill="#8E2B43"/>
<path fill-rule="evenodd" clip-rule="evenodd" d="M374 230.022L428.224 229.832L430.019 229.827C430.019 229.827 436.506 201.848 426.003 191.065C423.445 188.441 420.12 186.507 416.497 185.25C405.224 181.327 391.044 183.921 388.004 192.522C383.988 203.888 374 230.022 374 230.022Z" fill="#4EC9B4"/>
<path fill-rule="evenodd" clip-rule="evenodd" d="M416.16 185.737C416.16 185.737 413.945 191.238 409.057 192.396C404.169 193.554 398.568 189.453 399.027 184.675C399.027 184.675 403.711 184.048 404.474 181.973C405.402 179.454 404.78 179.368 404.78 179.368C404.78 179.368 402.947 176.182 402.336 173.867C401.725 171.551 402.641 162.575 406.918 161.707C409.623 161.158 413.945 161.997 417 166.05C417 166.05 415.472 173.867 413.334 177.631C411.195 181.395 410.126 183.132 416.16 185.737Z" fill="#FA9E89"/>
<path opacity="0.184" fill-rule="evenodd" clip-rule="evenodd" d="M340.167 115.924L473 285.926V324.49C473 328.784 469.3 332.265 464.737 332.265H344.573C339.286 332.265 335 328.232 335 323.256V119.405C335 116.731 337.33 115.794 340.167 115.924" fill="#F4F2F9"/>
<path fill-rule="evenodd" clip-rule="evenodd" d="M380 213.081L373.018 185.291L362 186.949L372.684 227.283L380 213.081Z" fill="#4EC9B4"/>
<path fill-rule="evenodd" clip-rule="evenodd" d="M370.8 184.503L370.2 181.668C370.2 181.668 372 180.587 371.7 178.966C371.4 177.346 372 173.565 372 173.565C372 173.565 371.043 172.974 370.425 174.038C369.985 174.795 369.3 176.536 369.3 176.536C369.3 176.536 367.004 170.907 366.474 169.425C366.249 168.794 366.022 167.812 365.499 167.962C365.224 168.04 365.324 168.614 365.371 169.176C365.511 170.859 366.299 173.543 366.299 173.543L365.899 173.757L364.236 168.94C364.163 168.707 364.043 168.352 363.774 168.333C363.536 168.315 363.299 168.434 363.299 168.974C363.299 170.055 364.574 174.522 364.574 174.522L364.255 174.722L362.32 170.816C362.187 170.521 361.707 170.547 361.625 170.856C361.56 171.101 361.579 171.45 361.798 171.945C362.398 173.296 362.998 175.455 362.998 175.455L362.848 175.613L361.798 173.632C361.61 173.316 361.149 173.112 361.015 173.45C360.827 173.923 362.473 177.987 362.473 178.258C362.473 178.528 363.599 182.207 364.799 182.477C365.999 182.748 366.074 185.291 366.074 185.291L370.8 184.503V184.503Z" fill="#FA9E89"/>
<path fill-rule="evenodd" clip-rule="evenodd" d="M440.351 251.018H462.65C463.948 251.018 465.001 250.04 465.001 248.833V245.901C465.001 244.694 463.948 243.715 462.65 243.715H440.352C439.054 243.715 438.001 244.694 438.001 245.901V248.833C438.001 250.04 439.054 251.018 440.352 251.018H440.351ZM408.352 251.018H430.65C431.948 251.018 433.001 250.04 433.001 248.833V245.901C433.001 244.694 431.948 243.715 430.65 243.715H408.352C407.054 243.715 406.001 244.694 406.001 245.901V248.833C406.001 250.04 407.054 251.018 408.352 251.018ZM374.352 251.018H396.65C397.948 251.018 399.001 250.04 399.001 248.833V245.901C399.001 244.694 397.948 243.715 396.65 243.715H374.353C373.054 243.715 372.001 244.694 372.001 245.901V248.833C372.001 250.04 373.054 251.018 374.353 251.018H374.352ZM342.353 251.018H364.65C365.948 251.018 367.001 250.04 367.001 248.833V245.901C367.001 244.694 365.948 243.715 364.65 243.715H342.352C341.054 243.715 340.001 244.694 340.001 245.901V248.833C340.001 250.04 341.054 251.018 342.352 251.018" fill="#FFDEDD"/>
<path fill-rule="evenodd" clip-rule="evenodd" d="M344.547 268.363H462.453C463.86 268.363 465 267.377 465 266.163V263.26C465 262.046 463.86 261.06 462.453 261.06H344.547C343.14 261.06 342 262.046 342 263.26V266.163C342 267.377 343.14 268.363 344.547 268.363ZM462.453 282.969C463.86 282.969 465 281.983 465 280.769V277.866C465 276.652 463.86 275.666 462.453 275.666H344.547C343.14 275.666 342 276.652 342 277.866V280.769C342 281.983 343.14 282.969 344.547 282.969H462.453ZM344.547 297.576H462.453C463.86 297.576 465 296.59 465 295.375V292.473C465 291.258 463.86 290.272 462.453 290.272H344.547C343.14 290.272 342 291.258 342 292.473V295.375C342 296.59 343.14 297.576 344.547 297.576ZM344.547 309.443H462.453C463.86 309.443 465 308.457 465 307.243V304.34C465 303.126 463.86 302.14 462.453 302.14H344.547C343.14 302.14 342 303.126 342 304.34V307.243C342 308.457 343.14 309.443 344.547 309.443Z" fill="#F4F2F9"/>
<path fill-rule="evenodd" clip-rule="evenodd" d="M419.222 159.11C419.222 159.11 412.922 151.033 401.032 155.71C389.144 160.386 402.049 168.037 402.049 168.037C402.049 168.037 402.303 165.061 404.183 164.211L404.03 166.856L410.686 167.92L411.753 165.369L412.439 168.274L415.792 169.407C415.792 169.407 413.049 178.192 411.448 179.468C411.448 179.468 410.762 181.522 410.991 181.947C411.219 182.372 421.355 184.71 422.651 182.585C423.947 180.46 421.279 177.484 420.441 175.5C419.603 173.516 421.965 162.984 419.221 159.11" fill="#FC516B"/>
<path fill-rule="evenodd" clip-rule="evenodd" d="M448.352 136.908H465.648C466.947 136.908 468 135.682 468 134.169C468 132.657 466.947 131.431 465.648 131.431H448.352C447.053 131.431 446 132.657 446 134.169C446 135.682 447.053 136.908 448.352 136.908Z" fill="#E4DCF1"/>
<path fill-rule="evenodd" clip-rule="evenodd" d="M422 202.636C422 202.636 419.336 220.241 416.29 227.283H400.23C400.23 227.283 397.582 219.854 410.277 217.424C419.107 215.735 422 202.636 422 202.636ZM390.389 198.071C390.389 198.071 387.129 207.2 387.741 209.939C388.351 212.677 391 214.686 391 216.511C391 218.337 389.37 225.275 389.37 225.275L380 225.458C380 225.458 381.556 225.215 385.093 222.673C390.491 218.794 385.857 210.235 387.003 205.374C387.603 202.824 390.389 198.071 390.389 198.071V198.071ZM380 212.469C380 212.469 379.787 220.122 378.085 218.944C376.383 217.767 377.447 206.386 375.958 202.461C374.468 198.536 370 185.977 370 185.977L373.83 185.291L380 212.469Z" fill="#44AD99"/>
<path fill-rule="evenodd" clip-rule="evenodd" d="M354.623 177.508C354.623 177.508 353.047 178.14 351.123 180.289C350.487 181.001 347.093 182.134 346.29 183.017C334.645 195.815 319.094 205.694 309.127 201.761C296.397 196.738 294 192.068 294 192.068L302.414 181.696C302.414 181.696 312.077 195.169 319.848 191.499C327.62 187.83 342.94 178.21 342.94 178.21L343.346 172.31C343.346 172.31 344.241 172.091 344.67 173.218C345.1 174.346 345.12 175.321 345.12 175.321L351.169 168.909C351.169 168.909 352.331 168.58 351.977 169.611C351.623 170.643 349.486 173.599 349.486 173.599C349.486 173.599 349.266 174.161 349.729 173.904C350.269 173.606 354.495 169.256 354.495 169.256C354.495 169.256 355.468 169.198 355.071 170.047C354.764 170.701 352.206 173.78 351.341 174.934C351.083 175.277 351.623 175.149 351.623 175.149L355.119 172.437C355.592 172.146 356.082 172.243 355.989 172.773C355.914 173.193 354.962 174.16 354.396 174.543C352.982 175.498 351.996 177.238 351.996 177.238L355.04 176.234C355.04 176.234 355.635 176.716 354.623 177.508V177.508ZM283 143.745L286.85 169.598L299.496 171.598C299.496 171.598 298.856 170.988 298.124 170.173C297.376 169.345 296.534 168.302 296.161 167.466C295.311 165.545 295.305 163.754 295.305 163.754C295.305 163.754 300.913 164.332 301.782 161.385C302.654 158.435 300.639 144.694 300.639 144.694C300.639 144.694 298.136 136.059 283 143.745Z" fill="#FA9E89"/>
<path fill-rule="evenodd" clip-rule="evenodd" d="M293.613 144.039C293.613 144.039 299.849 148.339 305.832 144.677C305.832 144.677 302.04 144.357 300.86 142.606C300.86 142.606 303.22 143.163 306 139.581C306 139.581 301.113 140.218 299.428 138.864C297.742 137.51 289.148 135.361 284.008 138.625C278.867 141.89 278.951 144.279 278.951 144.279C278.951 144.279 275.918 145.313 276.001 146.906C276.086 148.498 283.501 161.556 283.501 161.556L285.102 155.743C285.102 155.743 283.838 156.088 283.08 153.382C282.322 150.674 285.608 151.842 285.945 152.4C286.282 152.956 288.473 148.577 288.473 148.577L288.136 146.03C288.136 146.03 287.04 142.765 293.613 144.04" fill="#261F27"/>
<path fill-rule="evenodd" clip-rule="evenodd" d="M281.786 265.062C285.377 278.287 278.736 331.163 278.736 331.163L285.234 332.265C311.394 277.478 305.41 232.761 305.41 232.761L276 234.964C276 234.964 276.075 233.847 276.106 234.112C276.444 236.858 278.514 252.998 281.786 265.062" fill="white"/>
<path fill-rule="evenodd" clip-rule="evenodd" d="M314.27 317.728L321.823 323.077C321.823 323.077 324.798 322.749 325.371 324.004C325.943 325.26 326 326.679 326 326.679L318.104 326.788L305 322.04L307.06 316.746L314.27 317.728ZM284.45 333.488C284.45 333.488 287.122 337.434 289.815 340.656C290.72 341.739 292.932 342.209 293.793 344.851C294.533 347.124 293.053 348.697 293.053 348.697C293.053 348.697 288.088 347.881 284.634 345.085C281.181 342.288 276 336.926 276 336.926L277.418 332.265L284.449 333.488H284.45Z" fill="#6397D9"/>
<path fill-rule="evenodd" clip-rule="evenodd" d="M484 267.45C484 270.98 496.984 273.841 513 273.841C529.016 273.841 542 270.98 542 267.45C542 263.921 529.016 261.06 513 261.06C496.984 261.06 484 263.921 484 267.45Z" fill="#224A7D"/>
<path fill-rule="evenodd" clip-rule="evenodd" d="M484 266.537C484 270.067 496.984 272.928 513 272.928C529.016 272.928 542 270.067 542 266.537C542 263.008 529.016 260.147 513 260.147C496.984 260.147 484 263.008 484 266.537Z" fill="#6397D9"/>
<path fill-rule="evenodd" clip-rule="evenodd" d="M505 262.886C505 264.399 510.373 265.625 517 265.625C523.627 265.625 529 264.399 529 262.886C529 261.373 523.627 260.147 517 260.147C510.373 260.147 505 261.373 505 262.886ZM542 265.625V269.263C542 269.263 541.93 271.513 537 272.928L538.179 268.986C538.179 268.986 541.642 267.621 542 265.625Z" fill="#162F44"/>
<path fill-rule="evenodd" clip-rule="evenodd" d="M484.006 265.625V269.354C484.006 269.354 483.616 271.219 489 272.928L487.348 268.577C487.348 268.577 484.488 267.411 484.006 265.625Z" fill="#8CC5F2"/>
<path fill-rule="evenodd" clip-rule="evenodd" d="M503 253.792L504.968 260.812C505.456 262.559 507.391 263.799 509.621 263.799H513.854C515.439 263.799 516.879 263.173 517.754 262.181C518.06 261.834 518.295 261.439 518.446 261.015L520.152 256.164L521 253.757L503 253.792Z" fill="#FC516B"/>
<path fill-rule="evenodd" clip-rule="evenodd" d="M503 252.844C503 253.348 507.03 253.757 512 253.757C516.97 253.757 521 253.348 521 252.844C521 252.34 516.97 251.931 512 251.931C507.03 251.931 503 252.34 503 252.844Z" fill="#9B293F"/>
<path fill-rule="evenodd" clip-rule="evenodd" d="M515.406 262.573C515.052 262.698 514.718 262.804 514.406 262.886L516.516 262.59C516.811 262.217 517.033 261.8 517.173 261.358L518.789 256.238C518.87 255.992 519 255.599 519 255.583C519 255.583 514.785 256.717 511 256.33C512.231 256.479 515.31 256.706 517.168 256.622C517.275 256.616 517.381 256.631 517.481 256.667C517.58 256.703 517.669 256.758 517.742 256.829C517.815 256.9 517.87 256.985 517.903 257.078C517.936 257.171 517.946 257.269 517.932 257.366C517.698 258.878 517.027 261.998 515.406 262.573" fill="#F995A9"/>
<path fill-rule="evenodd" clip-rule="evenodd" d="M511 250.928L511.679 253.746L512.173 253.757C512.173 253.757 512.201 250.928 515.847 249.193C519.497 247.458 518.974 240.977 518.974 240.977L518.971 240.985C518.883 241.152 517.483 243.815 516.422 243.988C515.328 244.173 514.649 245.768 514.649 245.768C514.649 245.768 514.127 246.453 513.502 246.316C512.876 246.179 512.251 247.685 512.251 247.685L512.044 249.285L511 250.928V250.928Z" fill="#51A595"/>
<path fill-rule="evenodd" clip-rule="evenodd" d="M515.993 256.484C515.993 256.484 516.693 235.09 504.393 229.109C504.393 229.109 500.892 230.343 504.993 235.469C509.093 240.595 505.792 244.297 507.593 245.627C509.393 246.955 511.993 247.81 511.593 249.519C511.193 251.228 511.693 252.936 512.493 253.126C513.293 253.315 515.093 254.324 515.373 256.496L515.993 256.484V256.484Z" fill="#4EC9B4"/>
<path fill-rule="evenodd" clip-rule="evenodd" d="M516 252.662L516.04 253.746L516.578 253.757C516.578 253.757 516.608 250.928 520.572 249.193C524.54 247.458 523.972 240.977 523.972 240.977L523.968 240.985L523.632 241.96C523.632 247.848 519.909 249.068 518.42 249.854C516.931 250.64 516 252.662 516 252.662" fill="#41877A"/>
<path fill-rule="evenodd" clip-rule="evenodd" d="M296.185 171.693C296.185 171.693 285.633 171.85 284.691 170.685L284 172.417C284 172.417 292.36 176.577 298 174.813L296.185 171.693V171.693Z" fill="#306299"/>
<path fill-rule="evenodd" clip-rule="evenodd" d="M311 184.301L298.412 197.158C298.412 197.158 281.59 183.39 282.008 179.074C282.425 174.759 288.588 165.824 298.042 174.032C307.24 182.018 311 184.301 311 184.301Z" fill="#8CC5F2"/>
<path fill-rule="evenodd" clip-rule="evenodd" d="M278.565 331.949L281.131 332.265C281.131 332.265 293.157 293.495 289.201 264.851C288.012 256.239 283.857 234.587 283.857 234.587L276 235.259C276.318 238.019 278.357 253.385 281.426 265.51C284.793 278.803 278.566 331.949 278.566 331.949" fill="#F4F2F9"/>
<path fill-rule="evenodd" clip-rule="evenodd" d="M292.253 170.281C293.741 170.577 294.552 170.671 295 170.685C294.302 169.803 293.516 168.693 293.168 167.802C292.375 165.756 292.369 163.849 292.369 163.849C292.369 163.849 289.398 163.135 289.092 163.472C288.788 163.808 289.092 169.652 292.253 170.281" fill="#E6846F"/>
<path fill-rule="evenodd" clip-rule="evenodd" d="M438 173.423C438 183.001 446.048 190.768 455.973 190.768C460.129 190.768 463.954 189.407 467 187.12V159.726C463.954 157.439 460.13 156.078 455.973 156.078C446.048 156.078 438 163.845 438 173.423Z" fill="#CEC3E2"/>
<path fill-rule="evenodd" clip-rule="evenodd" d="M438 173.88C438 183.206 445.493 190.768 454.734 190.768C458.604 190.768 462.164 189.443 465 187.217V160.543C462.165 158.318 458.603 156.991 454.734 156.991C445.493 156.991 438 164.554 438 173.88Z" fill="#C3B8D8"/>
<path fill-rule="evenodd" clip-rule="evenodd" d="M412 189.03C412 189.03 413.985 188.022 414.298 187.839C414.612 187.657 418.688 188.662 424.124 193.787C429.557 198.912 424.854 203.212 427.152 205.956C429.453 208.702 427.259 214.467 426.108 218.403C424.958 222.337 426.108 227.278 426.108 227.278L426.168 227.283L427.989 227.278C427.989 227.278 434.573 200.925 423.914 190.767C421.318 188.297 417.944 186.474 414.267 185.291L412 189.03Z" fill="#44AD99"/>
</g>
</g>
</svg>
